<?xml version="1.0" encoding="UTF-8"?> <svg xmlns="http://www.w3.org/2000/svg" width="137.232" height="36.144" viewBox="0 0 137.232 36.144"><path d="M11.16.252a11.935,11.935,0,0,1-4.734-.9A7.773,7.773,0,0,1,3.1-3.24a6.825,6.825,0,0,1-1.26-4h5.4a3.492,3.492,0,0,0,1.1,2.448,3.89,3.89,0,0,0,2.718.9,4.181,4.181,0,0,0,2.772-.846,2.751,2.751,0,0,0,1.008-2.214,2.558,2.558,0,0,0-.684-1.836,4.793,4.793,0,0,0-1.71-1.134,28.3,28.3,0,0,0-2.826-.918,30.267,30.267,0,0,1-3.978-1.422,6.968,6.968,0,0,1-2.628-2.124,6.053,6.053,0,0,1-1.1-3.8,6.791,6.791,0,0,1,1.116-3.888,7.1,7.1,0,0,1,3.132-2.538,11.4,11.4,0,0,1,4.608-.882,10,10,0,0,1,6.318,1.89,7.007,7.007,0,0,1,2.682,5.274H14.22a2.879,2.879,0,0,0-1.1-2.142,4.137,4.137,0,0,0-2.718-.846,3.5,3.5,0,0,0-2.358.756,2.733,2.733,0,0,0-.882,2.2,2.27,2.27,0,0,0,.666,1.674,5.079,5.079,0,0,0,1.656,1.08q.99.414,2.79.954a29.31,29.31,0,0,1,4,1.44,7.176,7.176,0,0,1,2.664,2.16,6,6,0,0,1,1.116,3.78,7.11,7.11,0,0,1-1.044,3.744,7.37,7.37,0,0,1-3.06,2.754A10.437,10.437,0,0,1,11.16.252Zm32.076-20.2V0H38.16V-2.52A6.654,6.654,0,0,1,35.622-.486a7.879,7.879,0,0,1-3.4.738,8.45,8.45,0,0,1-4.14-.99,6.979,6.979,0,0,1-2.826-2.916,9.636,9.636,0,0,1-1.026-4.59v-11.7h5.04v10.98A5.171,5.171,0,0,0,30.456-5.31,4.208,4.208,0,0,0,33.7-4.032,4.253,4.253,0,0,0,36.972-5.31,5.171,5.171,0,0,0,38.16-8.964v-10.98Zm10.008,2.88a7.653,7.653,0,0,1,2.682-2.286,8.128,8.128,0,0,1,3.906-.918,8.722,8.722,0,0,1,4.626,1.26,8.865,8.865,0,0,1,3.276,3.582,11.515,11.515,0,0,1,1.206,5.382,11.735,11.735,0,0,1-1.206,5.418A9.07,9.07,0,0,1,64.458-.972a8.539,8.539,0,0,1-4.626,1.3,8.047,8.047,0,0,1-3.87-.9,8.3,8.3,0,0,1-2.718-2.268V9.5H48.2V-19.944h5.04Zm10.548,7.02a6.259,6.259,0,0,0-.738-3.114,5.11,5.11,0,0,0-1.944-2,5.2,5.2,0,0,0-2.61-.684,5.034,5.034,0,0,0-2.574.7A5.21,5.21,0,0,0,53.982-13.1a6.361,6.361,0,0,0-.738,3.132,6.361,6.361,0,0,0,.738,3.132,5.21,5.21,0,0,0,1.944,2.034,5.034,5.034,0,0,0,2.574.7,5,5,0,0,0,2.61-.72,5.345,5.345,0,0,0,1.944-2.052A6.439,6.439,0,0,0,63.792-10.044Zm27.36-.36a11.894,11.894,0,0,1-.144,1.944H76.428A4.959,4.959,0,0,0,77.94-5.076a4.662,4.662,0,0,0,3.276,1.224,4.115,4.115,0,0,0,4-2.412h5.436A9.085,9.085,0,0,1,87.336-1.53,9.669,9.669,0,0,1,81.324.324,10.4,10.4,0,0,1,76.158-.954a9,9,0,0,1-3.564-3.618,11.086,11.086,0,0,1-1.278-5.4,11.292,11.292,0,0,1,1.26-5.436,8.792,8.792,0,0,1,3.528-3.6,10.569,10.569,0,0,1,5.22-1.26,10.485,10.485,0,0,1,5.094,1.224A8.614,8.614,0,0,1,89.91-15.57,10.513,10.513,0,0,1,91.152-10.4Zm-5.22-1.44a4,4,0,0,0-1.4-3.114,4.974,4.974,0,0,0-3.348-1.17,4.575,4.575,0,0,0-3.15,1.134,4.986,4.986,0,0,0-1.566,3.15Zm13.932-5a7.086,7.086,0,0,1,2.538-2.484,7.059,7.059,0,0,1,3.582-.9v5.292h-1.332a5.105,5.105,0,0,0-3.582,1.116q-1.206,1.116-1.206,3.888V0h-5.04V-19.944h5.04Zm14.544-.18a7.207,7.207,0,0,1,2.682-2.34,8.261,8.261,0,0,1,3.906-.9,8.722,8.722,0,0,1,4.626,1.26,8.865,8.865,0,0,1,3.276,3.582,11.515,11.515,0,0,1,1.206,5.382A11.735,11.735,0,0,1,128.9-4.626a9.07,9.07,0,0,1-3.276,3.654A8.539,8.539,0,0,1,121,.324a8.262,8.262,0,0,1-3.906-.882,7.587,7.587,0,0,1-2.682-2.286V0h-5.04V-26.64h5.04Zm10.548,6.984a6.259,6.259,0,0,0-.738-3.114,5.11,5.11,0,0,0-1.944-2,5.2,5.2,0,0,0-2.61-.684,5.034,5.034,0,0,0-2.574.7,5.21,5.21,0,0,0-1.944,2.034,6.361,6.361,0,0,0-.738,3.132,6.361,6.361,0,0,0,.738,3.132,5.21,5.21,0,0,0,1.944,2.034,5.034,5.034,0,0,0,2.574.7,5,5,0,0,0,2.61-.72,5.345,5.345,0,0,0,1.944-2.052A6.439,6.439,0,0,0,124.956-10.044ZM136.008.252a3.118,3.118,0,0,1-2.25-.846,2.8,2.8,0,0,1-.882-2.106,2.8,2.8,0,0,1,.882-2.106,3.118,3.118,0,0,1,2.25-.846,3.009,3.009,0,0,1,2.2.846,2.828,2.828,0,0,1,.864,2.106A2.828,2.828,0,0,1,138.2-.594,3.009,3.009,0,0,1,136.008.252Z" transform="translate(-1.836 26.64)"></path></svg> 